<svg width="292" height="53" fill="none" xmlns="http://www.w3.org/2000/svg"><g clip-path="url('#clip0_1991_6609')"><mask id="mask0_1991_6609" style="mask-type:luminance" maskUnits="userSpaceOnUse" x="0" y="0" width="292" height="53"><path d="M292 0H0v52.27h292V0Z" fill="#fff"/></mask><g mask="url('#mask0_1991_6609')" fill-rule="evenodd" clip-rule="evenodd" fill="#fff"><path d="M33.795 46.112c-7.72 8.214-20.768 8.214-28.487 0-6.48-6.891-7.096-17.43-1.469-25.026L19.395.078a.195.195 0 0 1 .312 0l15.556 21.008c5.628 7.6 5.011 18.139-1.468 25.026ZM225.413.669h.852c3.466 0 6.825-.001 10.13-.003 10.245-.003 19.966-.007 30.71.028 4.105.014 8.157.562 11.961 2.25 5.867 2.6 8.898 7.214 9.617 13.51.387 3.389.237 6.727-.788 9.976-1.887 5.993-6.246 9.36-12.149 10.764-2.726.648-5.574 1.035-8.371 1.067-7.336.09-13.765.077-20.579.064h-.001c-2.747-.006-5.558-.011-8.516-.01h-.724a.716.716 0 0 0-.716.716V50.92a.717.717 0 0 1-.716.716h-9.997a.717.717 0 0 1-.717-.717V.673s.002-.004.004-.004Zm11.462 26.714c0 .211.164.386.375.401.225.017.432.032.639.032 2.683 0 5.237.002 7.731.003 6.766.003 13.091.007 20.372-.017 1.515-.004 3.041-.147 4.542-.366 3.947-.58 6.139-2.664 6.73-6.268.724-4.423-1.02-7.801-4.828-9.055-1.318-.437-2.751-.73-4.134-.745-8.814-.073-16.429-.091-24.809-.111h-.008l-5.675-.014c-.211 0-.42.024-.631.05a.343.343 0 0 0-.304.338v15.752ZM50.506.72a.316.316 0 0 0-.278.311v49.97c0 .397.321.717.717.717H89.65c3.593-.003 7.157-.28 10.642-1.218 8.307-2.238 14.134-7.17 16.545-15.599 1.666-5.824 1.626-11.716-.061-17.551-1.87-6.473-5.924-11.082-12.049-13.88-4.32-1.977-8.91-2.747-13.601-2.769C80.749.656 71.54.662 61.775.668c-3.471.002-7.012.005-10.701.005-.188 0-.375.023-.568.047Zm11.785 40.388c-.11-.007-.225-.015-.35-.02a.004.004 0 0 0 .004-.004V11.67c0-.21.164-.383.374-.395.287-.017.557-.033.83-.033l9.174-.001h.03c5.638 0 10.982-.002 17.255 0 3.016 0 6 .22 8.84 1.387 4.578 1.88 7.032 5.405 7.791 10.18.541 3.41.401 6.805-.874 10.058-1.68 4.28-5.014 6.64-9.374 7.583a28.441 28.441 0 0 1-5.8.655c-7.164.047-13.189.04-19.736.034h-.007c-2.428-.003-4.929-.005-7.586-.005-.184 0-.368-.012-.571-.026Zm83-5.163h.008c7.274.001 14.17.002 21.579-.014.227 0 .442.108.577.29l11.203 15.127c.135.183.349.29.576.29h12.287c.588 0 .926-.67.576-1.143L180.888 35.36c-.292-.394-.11-.96.348-1.133.765-.29 1.511-.627 2.24-1.005.87-.45 1.73-.988 2.486-1.569a14.318 14.318 0 0 0 2.084-1.948 13.41 13.41 0 0 0 1.655-2.353c.487-.878.885-1.81 1.189-2.766.86-2.69 1.021-5.47.76-8.27-.577-6.161-3.507-10.692-9.22-13.289-4.144-1.884-8.554-2.328-13.031-2.332-10.092-.013-19.617-.01-29.395-.009l-11.303.002h-.39a.717.717 0 0 0-.717.716V50.92c0 .396.321.717.717.717h9.922c.395 0 .716-.32.716-.717V36.325c0-.19.15-.348.341-.36h.002c.201-.011.364-.02.527-.02H145.291Zm-5.949-9.818-.336-.018c-.002 0-.003-.002-.003-.004v-14.81c0-.185.145-.338.331-.35.228-.014.443-.027.657-.027 2.193 0 4.337-.002 6.453-.004 7.789-.006 15.196-.011 23.266.025 1.616.008 3.267.169 4.836.53 4.012.928 5.842 3.389 5.717 7.4-.122 3.773-2.185 6.111-6.143 6.85-1.275.236-2.586.397-3.883.4-8.52.03-16.337.028-24.59.026h-5.888c-.131 0-.261-.008-.417-.018ZM213.034.747c.395 0 .716.32.716.716v8.719a.716.716 0 0 1-.716.716h-10.166a.716.716 0 0 1-.716-.716V1.463c0-.395.321-.716.716-.716h10.166Zm-10.166 20.739a.716.716 0 0 0-.716.716v28.73c0 .396.321.717.716.717h10.166c.395 0 .716-.32.716-.717v-28.73a.716.716 0 0 0-.716-.716h-10.166Z"/></g></g><defs><clipPath id="clip0_1991_6609"><path fill="#fff" d="M0 0h292v53H0z"/></clipPath></defs></svg>