<?xml version="1.0" encoding="UTF-8"?> <svg xmlns="http://www.w3.org/2000/svg" width="228" height="31" viewBox="0 0 228 31" fill="none"><path d="M196.275 28.2027C196.324 28.2838 196.336 28.2951 196.336 28.3065C196.42 29.14 196.42 29.1416 195.646 29.3832C194.149 29.8519 192.654 30.3302 191.152 30.7794C190.794 30.8607 190.43 30.9149 190.065 30.9416V27.0886L189.986 27.0529C189.908 27.1632 189.827 27.2702 189.756 27.3773C188.697 29.0248 187.327 30.2962 185.407 30.7097C182.112 31.4086 178.328 29.9719 176.596 26.1465C175.722 24.2184 175.477 22.1735 175.546 20.0719C175.635 17.3881 176.311 14.8924 177.993 12.7859C180.462 9.6951 183.657 8.56969 187.472 9.34645C188.436 9.54105 189.24 10.0956 190.005 10.8059C190.02 10.6616 190.039 10.5659 190.039 10.4702C190.039 9.05456 190.039 7.63726 190.039 6.21996C190.034 5.90991 190 5.60104 189.94 5.29726C189.781 4.46212 189.272 3.97402 188.465 3.81834C188.066 3.7405 187.659 3.69834 187.199 3.63023C187.187 3.42703 187.19 3.22321 187.208 3.0205C187.22 2.96803 187.243 2.91903 187.276 2.87738C187.31 2.83572 187.352 2.80256 187.4 2.7805C189.167 2.24699 190.935 1.71834 192.709 1.20915C192.926 1.14753 193.174 1.20915 193.458 1.20915V1.7378C193.458 9.67078 193.458 17.6048 193.458 25.54C193.458 25.8498 193.48 26.1592 193.523 26.4659C193.681 27.6157 194.205 28.1102 195.35 28.1978C195.661 28.2221 195.977 28.2027 196.275 28.2027ZM190.043 20.9411C190.043 19.5108 190.082 18.0805 190.033 16.6519C189.974 14.9929 189.476 13.4702 188.394 12.2005C186.792 10.321 184.059 9.96591 182.142 11.3897C181.009 12.2362 180.31 13.4183 179.843 14.7513C179.128 16.8011 178.996 18.9156 179.242 21.0562C179.436 22.7524 179.827 24.4 180.743 25.8659C181.478 27.04 182.443 27.9302 183.79 28.2854C184.931 28.571 186.13 28.4884 187.223 28.0489C188.316 27.6094 189.25 26.8345 189.897 25.8302C189.989 25.6713 190.037 25.4897 190.036 25.3048C190.047 23.8551 190.043 22.3989 190.043 20.9411Z" fill="black"></path><path d="M81.3493 28.2038V29.1768C79.6718 29.6989 78.0007 30.2292 76.3232 30.7319C75.9057 30.832 75.483 30.9073 75.0571 30.9573V27.0995L74.9827 27.0654C74.9083 27.1757 74.8245 27.286 74.758 27.3995C73.6376 29.1297 72.1784 30.4578 70.1322 30.7773C66.6284 31.3238 63.207 29.7119 61.5864 26.0989C60.6606 24.0346 60.4454 21.8454 60.5783 19.6124C60.7192 17.2222 61.3696 14.9908 62.7939 13.0595C65.0617 9.99299 68.1097 8.77191 71.8145 9.19677C72.8959 9.33349 73.9113 9.8034 74.7264 10.5443C74.8055 10.6141 74.8846 10.6838 74.9701 10.7503C74.9701 10.7503 74.9922 10.7503 75.0334 10.7341C75.0334 10.6157 75.0492 10.486 75.0492 10.3579C75.0492 9.02164 75.0492 7.68542 75.0492 6.34921C75.0492 6.17407 75.0492 5.99893 75.035 5.8238C74.9463 4.53461 74.345 3.89731 73.0916 3.75461C72.8051 3.72218 72.5203 3.68488 72.1974 3.64596C72.1814 3.45641 72.1846 3.26566 72.2069 3.07677C72.2222 3.01397 72.2507 2.95533 72.2903 2.90492C72.3299 2.85452 72.3798 2.81356 72.4364 2.78488C74.1772 2.25515 75.9212 1.73731 77.6683 1.23137C77.9298 1.18722 78.1948 1.1693 78.4596 1.17785V1.77623C78.4596 9.65515 78.4596 17.5346 78.4596 25.4146C78.4596 25.7243 78.4754 26.0357 78.5055 26.3438C78.6242 27.5568 79.1986 28.1276 80.3935 28.2006C80.7021 28.22 81.0043 28.2038 81.3493 28.2038ZM75.0476 20.8319C75.0476 19.4568 75.0698 18.0751 75.0476 16.7049C75.0412 15.1264 74.5142 13.5966 73.5521 12.3638C73.1419 11.8243 72.6235 11.3812 72.0321 11.0643C71.4406 10.7474 70.7897 10.5641 70.1232 10.5267C69.4567 10.4894 68.7902 10.5989 68.1685 10.8478C67.5468 11.0967 66.9844 11.4793 66.5192 11.9697C65.7563 12.7771 65.1831 13.7521 64.8433 14.8206C64.0964 16.9935 64.0188 19.2314 64.3211 21.4887C64.5316 23.06 64.9351 24.5795 65.8008 25.927C66.5398 27.0784 67.4988 27.9508 68.8361 28.2962C69.9715 28.5745 71.1629 28.4893 72.2496 28.052C73.3363 27.6147 74.2659 26.8464 74.9131 25.8508C75.0034 25.6908 75.0499 25.5087 75.0476 25.3238C75.0524 23.827 75.0476 22.3303 75.0476 20.8319Z" fill="black"></path><path d="M47.2944 29.3861V30.2942H38.1805V29.4024C38.6552 29.271 39.13 29.1705 39.5779 29.0051C40.6397 28.6175 41.0022 28.0661 41.0022 26.8969C41.0022 23.9424 41.0022 20.9872 41.0022 18.0315V14.3634C41.0022 14.2142 41.0022 14.0651 40.9927 13.9175C40.8755 12.4386 40.3201 11.8548 38.8879 11.6926C38.6536 11.6651 38.421 11.631 38.1994 11.6002C38.1829 11.5721 38.1696 11.5422 38.1599 11.511C38.095 10.7634 38.0966 10.7651 38.7929 10.5575C40.2963 10.1099 41.7998 9.65101 43.3048 9.21966C43.6785 9.13947 44.057 9.08529 44.4379 9.0575V13.5526L44.5297 13.5932C44.6104 13.4845 44.6879 13.3775 44.7718 13.2688C45.5061 12.2407 46.3085 11.2791 47.3039 10.5121C49.1159 9.11912 51.1147 8.72831 53.2733 9.44831C55.3749 10.157 56.5223 11.7575 56.9717 13.9061C57.1119 14.6198 57.1798 15.3463 57.1743 16.0742C57.1948 19.5964 57.1838 23.1186 57.1838 26.6391C57.1838 28.1845 57.562 28.7083 59.01 29.1396C59.336 29.2369 59.6715 29.3018 60.0197 29.3926V30.2991H51.0941C51.0751 30.2667 51.0545 30.244 51.053 30.2213C51.0134 29.4542 51.0134 29.4559 51.7398 29.2483C51.8284 29.2224 51.917 29.1948 52.0041 29.1656C53.3983 28.6969 53.7607 28.1829 53.7607 26.6813C53.7607 23.1742 53.7607 19.6661 53.7607 16.157C53.7607 14.978 53.6025 13.8364 52.8112 12.8959C51.9882 11.9115 50.8931 11.631 49.684 11.6683C48.0888 11.7153 46.8149 12.4791 45.6992 13.5721C44.4331 14.811 44.4331 14.8191 44.4331 16.6029V26.6424C44.4331 28.1829 44.8161 28.7115 46.261 29.1413C46.6186 29.2321 46.9462 29.3002 47.2944 29.3861Z" fill="black"></path><path d="M165.079 11.5971C165.064 11.5538 165.053 11.5093 165.044 11.4641C165.002 10.7506 165.002 10.7522 165.677 10.5495C167.155 10.1117 168.632 9.66411 170.109 9.23925C170.499 9.1501 170.893 9.08243 171.291 9.03655V9.58303C171.291 14.8987 171.291 20.2144 171.291 25.5301C171.29 25.8128 171.309 26.0952 171.349 26.3749C171.542 27.6138 172.107 28.1311 173.331 28.2041C173.606 28.2203 173.883 28.2041 174.188 28.2041V29.1771C172.68 29.6425 171.161 30.1209 169.635 30.5765C169.088 30.7387 168.528 30.849 167.895 30.9998V26.2971C167.746 26.4771 167.67 26.5582 167.605 26.649C166.877 27.6641 166.094 28.6241 165.114 29.4057C163.215 30.9057 161.126 31.3144 158.866 30.4874C156.809 29.7349 155.748 28.0938 155.324 25.9841C155.203 25.3354 155.145 24.676 155.15 24.0155C155.133 20.8176 155.142 17.6198 155.142 14.422C155.142 14.302 155.142 14.1803 155.142 14.0587C155.093 12.5392 154.471 11.8533 152.998 11.6879C152.778 11.6636 152.558 11.6279 152.316 11.5955V10.7214C154.373 10.1944 156.369 9.3852 158.554 8.99438V9.61547C158.554 14.3787 158.554 19.1409 158.554 23.902C158.554 24.9657 158.713 25.9987 159.335 26.9003C159.941 27.7776 160.8 28.183 161.81 28.3014C163.517 28.5025 164.975 27.9074 166.241 26.7722C166.747 26.3 167.226 25.7981 167.676 25.269C167.804 25.1052 167.874 24.9016 167.874 24.6917C167.887 21.1987 167.887 17.7047 167.874 14.2095C167.873 13.9131 167.843 13.6175 167.784 13.3274C167.592 12.3544 166.992 11.8452 165.92 11.7057C165.649 11.6652 165.364 11.6328 165.079 11.5971Z" fill="black"></path><path d="M17.7642 20.2241C17.799 17.396 18.5333 14.6441 20.4798 12.3431C22.4976 9.9609 25.0692 8.93766 28.1473 9.13226C32.3585 9.40307 35.6138 12.5587 36.4209 17.0587C36.9526 20.0166 36.6978 22.8966 35.3131 25.5966C33.8556 28.4409 31.6099 30.2896 28.467 30.7858C23.8064 31.5155 19.774 28.9014 18.3228 24.2993C17.9262 22.98 17.7376 21.6043 17.7642 20.2241ZM33.1149 20.649C33.0374 19.9793 32.9662 18.9285 32.7874 17.8923C32.436 15.862 31.7492 13.9728 30.4135 12.3787C28.88 10.5544 26.3195 10.1328 24.3777 11.4463C23.1876 12.2571 22.4913 13.4523 22.0466 14.8144C21.2379 17.289 21.298 19.8009 21.7728 22.3225C22.1162 24.142 22.7381 25.8301 23.857 27.3269C24.3255 27.9616 24.9398 28.4679 25.6454 28.8007C26.3509 29.1334 27.1258 29.2824 27.901 29.2342C28.6763 29.1861 29.4279 28.9424 30.0891 28.5247C30.7502 28.1071 31.3004 27.5285 31.6907 26.8404C32.7367 25.0485 33.0469 23.0766 33.1086 20.649H33.1149Z" fill="black"></path><path d="M228 19.6796C227.959 22.7607 227.158 25.5515 225.093 27.8526C223.097 30.0758 220.597 31.0374 217.655 30.8623C213.344 30.6045 210.024 27.3207 209.288 22.7542C208.827 19.8904 209.096 17.098 210.407 14.4839C211.853 11.5974 214.094 9.71312 217.272 9.21204C222.001 8.46609 226.084 11.171 227.467 15.8947C227.635 16.4757 227.762 17.0687 227.845 17.6688C227.929 18.332 227.949 19.0083 228 19.6796ZM224.409 20.4904C224.338 19.9099 224.251 18.7796 224.048 17.6704C223.689 15.6823 222.977 13.845 221.641 12.3045C220.977 11.5268 220.08 10.9953 219.091 10.7922C218.102 10.5891 217.075 10.7256 216.169 11.1807C214.707 11.9218 213.903 13.2304 213.38 14.7483C212.681 16.7753 212.613 18.8672 212.866 20.9753C213.072 22.6958 213.442 24.3807 214.256 25.9164C214.805 26.9591 215.466 27.9207 216.471 28.5515C218.468 29.8001 221.353 29.492 222.925 26.9542C224.045 25.1412 224.374 23.1207 224.409 20.4839V20.4904Z" fill="black"></path><path d="M99.4872 18.9283H85.5497C85.6652 19.8023 85.7396 20.631 85.8868 21.445C86.2286 23.3358 87.0104 25.0029 88.4078 26.3277C89.6327 27.4904 91.1076 27.938 92.7551 27.925C95.083 27.9072 96.8001 26.7315 98.2212 24.9737C98.677 24.4093 98.6738 24.4061 99.329 24.7937C99.0529 25.7905 98.5877 26.7218 97.9601 27.5342C96.0499 30.0137 93.5289 31.1018 90.4667 30.8456C86.8521 30.5326 84.4007 28.5218 83.1236 25.1439C81.5284 20.9277 81.8718 16.7699 84.3121 12.9623C86.2112 9.998 89.1136 8.92124 92.4892 9.14178C95.3947 9.33151 97.3033 11.0002 98.4554 13.6353C99.1202 15.1833 99.4733 16.8528 99.4936 18.5439C99.4888 18.6493 99.4872 18.7547 99.4872 18.9283ZM95.7999 17.4283C95.678 15.7045 95.4058 14.0666 94.5702 12.5796C94.1978 11.889 93.6186 11.3392 92.9181 11.0115C90.9842 10.1212 88.4157 10.8493 87.186 12.6104C86.5254 13.5749 86.0752 14.6739 85.8662 15.8326C85.7633 16.3531 85.6937 16.8802 85.6067 17.4283H95.7999Z" fill="black"></path><path d="M0 26.9135L3.08598 24.6562C3.18568 24.9108 3.27272 25.1427 3.36767 25.3665C4.04342 26.9703 5.00087 28.3178 6.60558 29.0751C8.21028 29.8324 10.4037 29.453 11.6223 28.2303C11.9408 27.9069 12.1941 27.5225 12.3676 27.0988C12.5412 26.6752 12.6315 26.2206 12.6336 25.7612C12.6357 25.3017 12.5494 24.8464 12.3796 24.4211C12.2099 23.9959 11.9601 23.609 11.6444 23.2827C11.0954 22.7349 10.4381 22.3141 9.71687 22.0487C8.2451 21.4616 6.76383 20.9022 5.30788 20.2762C4.55891 19.946 3.83477 19.5596 3.14137 19.12C0.767538 17.646 0.496922 15.2006 1.10621 13.1297C1.59838 11.4562 2.77422 10.4151 4.29188 9.75677C6.10549 8.97515 8.00455 9.00272 9.90362 9.23623C11.5943 9.41133 13.1866 10.1332 14.4503 11.2973C14.7874 11.6087 15.0691 11.9833 15.3998 12.3579L12.404 14.466C12.3392 14.3135 12.2854 14.1838 12.2284 14.0541C11.6144 12.6481 10.7519 11.4789 9.32915 10.8319C7.80199 10.1362 5.56267 10.5076 4.4897 11.6427C3.38192 12.8184 3.40407 14.8551 4.64796 15.8589C5.39529 16.4293 6.21189 16.8975 7.07718 17.2519C8.55053 17.9006 10.084 18.4016 11.5558 19.0616C12.3443 19.4336 13.0878 19.8983 13.7714 20.4465C15.7322 21.9773 15.816 24.9611 15.0517 26.8097C14.3822 28.4314 13.1953 29.5065 11.6523 30.1892C8.07893 31.767 3.17935 30.6449 0.602953 27.6789C0.394056 27.4535 0.213645 27.1908 0 26.9135Z" fill="black"></path><path d="M122.189 26.9118L125.272 24.6578C125.411 24.9999 125.525 25.3064 125.66 25.6097C126.335 27.1048 127.269 28.3535 128.779 29.067C130.347 29.8064 132.564 29.4626 133.77 28.2724C134.12 27.9363 134.395 27.5278 134.579 27.0742C134.762 26.6205 134.849 26.132 134.834 25.6412C134.819 25.1503 134.703 24.6684 134.492 24.2273C134.281 23.7863 133.981 23.3963 133.612 23.0832C133.041 22.6303 132.412 22.2618 131.741 21.9886C130.336 21.3789 128.893 20.8697 127.484 20.2648C126.76 19.9436 126.059 19.5708 125.386 19.1491C122.964 17.6718 122.667 15.1713 123.328 13.0324C123.836 11.3978 125.006 10.3891 126.493 9.74535C128.274 8.9767 130.141 8.99941 132.017 9.22157C133.425 9.36581 134.774 9.88147 135.93 10.7183C136.565 11.1602 137.11 11.7241 137.535 12.3789L134.585 14.4643C134.52 14.3183 134.47 14.1999 134.417 14.0832C133.799 12.6643 132.934 11.4789 131.498 10.8286C129.986 10.1443 127.763 10.5043 126.688 11.6232C125.519 12.8378 125.58 14.9297 126.918 15.9545C127.645 16.4849 128.432 16.9247 129.261 17.2648C130.616 17.8551 132.02 18.3302 133.376 18.9043C134.029 19.1884 134.659 19.5263 135.259 19.9145C137.994 21.6351 138.035 24.807 137.23 26.7821C136.365 28.8902 134.734 30.1226 132.616 30.5799C128.783 31.407 125.378 30.5702 122.646 27.5329C122.501 27.361 122.371 27.1551 122.189 26.9118Z" fill="black"></path><path d="M107.686 9.06272V14.9103L107.761 14.9346C107.819 14.7968 107.879 14.6606 107.933 14.5211C108.462 13.146 109.114 11.8438 110.12 10.7589C111.631 9.13732 113.673 8.66056 115.844 9.31569C115.765 9.92056 115.686 10.5303 115.602 11.14C115.518 11.7497 115.43 12.3627 115.336 13.0114C115.26 12.9836 115.185 12.9517 115.112 12.9157C114.295 12.4184 113.346 12.1985 112.4 12.2877C111.455 12.3768 110.561 12.7703 109.846 13.4119C108.944 14.2032 108.238 15.2039 107.789 16.3308C107.733 16.4809 107.706 16.6406 107.71 16.8011C107.71 20.146 107.71 23.4908 107.71 26.8357C107.71 27.773 108.137 28.4573 109.008 28.7525C109.78 29.0087 110.59 29.1481 111.381 29.3379C111.456 29.3557 111.54 29.367 111.625 29.3833V30.293H101.403V29.4125C101.915 29.2616 102.421 29.1287 102.918 28.9616C103.795 28.6681 104.171 27.9887 104.225 27.0903C104.235 26.9152 104.225 26.74 104.225 26.5649V14.3849C104.225 14.2097 104.225 14.033 104.225 13.8579C104.16 12.5216 103.532 11.8373 102.237 11.693C101.965 11.6638 101.693 11.6265 101.434 11.5941C101.416 11.566 101.402 11.5354 101.392 11.5033C101.329 10.7589 101.329 10.7606 102.025 10.553C103.54 10.1022 105.053 9.6384 106.574 9.20543C106.941 9.12977 107.312 9.08207 107.686 9.06272V9.06272Z" fill="black"></path><path d="M139.04 9.67862H142.503V9.22132C142.503 8.08619 142.512 6.95105 142.495 5.81592C142.484 5.70445 142.508 5.59232 142.563 5.4956C142.618 5.39888 142.702 5.32254 142.802 5.27754C143.492 4.88186 144.155 4.43754 144.859 4.0597C145.138 3.90889 145.481 3.8797 145.874 3.77429V9.66078H151.196V11.0975H145.864V11.584C145.864 16.01 145.864 20.4359 145.864 24.8619C145.865 25.2801 145.902 25.6973 145.975 26.1089C146.307 28.0127 147.676 28.9743 149.561 28.6613C150.327 28.5348 150.954 28.1278 151.561 27.6754C152.02 28.4732 152.14 28.2867 151.403 28.8997C150.665 29.5127 149.873 30.1386 149.004 30.51C146.753 31.47 143.307 30.8343 142.674 26.8824C142.564 26.2043 142.506 25.5184 142.501 24.8311C142.487 20.4186 142.501 16.0062 142.501 11.5938V11.1202H139.04V9.67862Z" fill="black"></path><path d="M204.458 9.04102V26.7021C204.458 28.1372 204.85 28.6853 206.198 29.107C206.548 29.2156 206.909 29.2902 207.284 29.3859V30.2907H198.178V29.4021C198.629 29.2772 199.09 29.1783 199.531 29.021C200.639 28.6302 201.005 28.0983 201.006 26.9129C201.012 22.6761 201.012 18.4394 201.006 14.2026C201.005 13.9593 200.986 13.7165 200.949 13.4762C200.791 12.4643 200.289 11.9291 199.295 11.7426C198.933 11.6762 198.566 11.6405 198.205 11.5918C198.188 11.568 198.175 11.5418 198.165 11.514C198.104 10.7583 198.104 10.7583 198.825 10.541C200.303 10.1016 201.78 9.65075 203.256 9.2275C203.653 9.14163 204.054 9.07936 204.458 9.04102V9.04102Z" fill="black"></path><path d="M202.725 5.9586C201.275 5.94076 200.253 4.88022 200.282 3.42401C200.31 1.96779 201.353 0.981845 202.831 0.991575C203.154 0.984931 203.475 1.04649 203.774 1.17241C204.073 1.29833 204.343 1.48592 204.568 1.72352C204.793 1.96111 204.968 2.24362 205.082 2.55347C205.196 2.86331 205.246 3.19386 205.23 3.52455C205.207 4.95806 204.164 5.97482 202.725 5.9586Z" fill="black"></path></svg> 