<?xml version="1.0" encoding="utf-8"?>
<!-- Generator: Adobe Illustrator 22.0.1, SVG Export Plug-In . SVG Version: 6.00 Build 0)  -->
<svg version="1.1" id="Layer_1" xmlns="http://www.w3.org/2000/svg" xmlns:xlink="http://www.w3.org/1999/xlink" x="0px" y="0px"
	 viewBox="0 0 400 77.1" style="enable-background:new 0 0 400 77.1;" xml:space="preserve">
<style type="text/css">
	.st0{fill:#0080BB;}
	.st1{fill:#231F20;}
</style>
<g>
	<g>
		<path class="st0" d="M30.6,30.3c7.3,0,11.9-2.4,11.9-7.9v-0.2c0-4.9-3.8-7.7-10.8-7.7H15.4v15.9L30.6,30.3L30.6,30.3z M35.1,60.5
			c7.3,0,11.7-2.6,11.7-8.1v-0.2C46.7,47,43,44,34.5,44H15.4v16.5L35.1,60.5L35.1,60.5z"/>
		<path class="st0" d="M104.2,1.2c0.1-0.1,0.2-0.2,0.3-0.3c0,0,0.1-0.1,0.1-0.2V0H36.4c7.6,0.4,13.5,2.7,17.4,6.6
			c3.4,3.4,5.1,7.6,5.1,12.7v0.2c0,8.5-4.5,13.2-9.8,16.2c8.7,3.3,14,8.4,14,18.4v0.2C63.1,68.1,52,75,35.1,75H0l15.5,2.1h89.1v-0.8
			c0-0.1-0.1-0.1-0.1-0.2c-0.1-0.1-0.2-0.2-0.3-0.3c-0.1-0.1-0.2-0.1-0.4-0.2l0,0c-0.3,0-0.5-0.1-0.7-0.2c-0.2-0.1-0.4-0.2-0.5-0.4
			c-0.1-0.1-0.2-0.3-0.3-0.5c-0.1-0.2-0.1-0.4-0.1-0.6c0-0.2,0-0.4,0.1-0.6c0-0.2,0.2-0.4,0.3-0.5c0.1-0.2,0.3-0.3,0.5-0.4
			c0.2-0.1,0.4-0.2,0.7-0.2l0,0c0.1,0,0.2-0.1,0.4-0.2c0.1-0.1,0.2-0.2,0.3-0.3c0,0,0.1-0.1,0.1-0.2v-2.1c0-0.1-0.1-0.1-0.1-0.2
			c-0.1-0.1-0.2-0.2-0.3-0.3c-0.1-0.1-0.2-0.1-0.4-0.2l0,0c-0.3,0-0.5-0.1-0.7-0.2c-0.2-0.1-0.4-0.2-0.5-0.4
			c-0.1-0.1-0.2-0.3-0.3-0.5c-0.1-0.2-0.1-0.4-0.1-0.6c0-0.2,0-0.4,0.1-0.6c0-0.2,0.2-0.4,0.3-0.5c0.1-0.1,0.3-0.3,0.5-0.4
			c0.2-0.1,0.4-0.2,0.7-0.2l0,0c0.1,0,0.2-0.1,0.4-0.2c0.1-0.1,0.2-0.2,0.3-0.3c0,0,0.1-0.1,0.1-0.2v-2.1c0-0.1-0.1-0.1-0.1-0.2
			c-0.1-0.1-0.2-0.2-0.3-0.3c-0.1-0.1-0.2-0.1-0.4-0.2l0,0c-0.3,0-0.5-0.1-0.7-0.2s-0.4-0.2-0.5-0.4c-0.1-0.1-0.2-0.3-0.3-0.5
			c-0.1-0.2-0.1-0.4-0.1-0.6s0-0.4,0.1-0.6c0-0.2,0.2-0.4,0.3-0.5c0.1-0.2,0.3-0.3,0.5-0.4c0.2-0.1,0.4-0.2,0.7-0.2l0,0
			c0.1,0,0.2-0.1,0.4-0.2c0.1-0.1,0.2-0.2,0.3-0.3c0,0,0.1-0.1,0.1-0.2V55c0-0.1-0.1-0.1-0.1-0.2c-0.1-0.1-0.2-0.2-0.3-0.3
			c-0.1-0.1-0.2-0.1-0.4-0.2l0,0c-0.3,0-0.5-0.1-0.7-0.2s-0.4-0.2-0.5-0.4c-0.1-0.1-0.2-0.3-0.3-0.5c-0.1-0.2-0.1-0.4-0.1-0.6
			s0-0.4,0.1-0.6c0-0.2,0.2-0.4,0.3-0.5c0.1-0.2,0.3-0.3,0.5-0.4c0.2-0.1,0.4-0.2,0.7-0.2l0,0c0.1,0,0.2-0.1,0.4-0.1
			c0.1-0.1,0.2-0.2,0.3-0.3c0,0,0.1-0.1,0.1-0.2v-2.1v0c-5.2,0-9.5-4.2-9.5-9.5c0-5.2,4.2-9.5,9.5-9.5v0v-2.1c0-0.1-0.1-0.1-0.1-0.2
			c-0.1-0.1-0.2-0.2-0.3-0.3c-0.1-0.1-0.2-0.1-0.4-0.2l0,0c-0.3,0-0.5-0.1-0.7-0.2c-0.2-0.1-0.4-0.2-0.5-0.4
			c-0.1-0.1-0.2-0.3-0.3-0.5c-0.1-0.2-0.1-0.4-0.1-0.6s0-0.4,0.1-0.6c0-0.2,0.2-0.4,0.3-0.5c0.1-0.2,0.3-0.3,0.5-0.4
			c0.2-0.1,0.4-0.2,0.7-0.2l0,0c0.1,0,0.2-0.1,0.4-0.2c0.1-0.1,0.2-0.2,0.3-0.3c0,0,0.1-0.1,0.1-0.2v-2.1c0-0.1-0.1-0.1-0.1-0.2
			c-0.1-0.1-0.2-0.2-0.3-0.3c-0.1-0.1-0.2-0.1-0.4-0.2l0,0c-0.3,0-0.5-0.1-0.7-0.2c-0.2-0.1-0.4-0.2-0.5-0.4
			c-0.1-0.1-0.2-0.3-0.3-0.5c-0.1-0.2-0.1-0.4-0.1-0.6s0-0.4,0.1-0.6c0-0.2,0.2-0.4,0.3-0.5c0.1-0.2,0.3-0.3,0.5-0.4
			c0.2-0.1,0.4-0.2,0.7-0.2l0,0c0.1,0,0.2-0.1,0.4-0.2c0.1-0.1,0.2-0.2,0.3-0.3c0,0,0.1-0.1,0.1-0.2v-2.1c0-0.1-0.1-0.1-0.1-0.2
			c-0.1-0.1-0.2-0.2-0.3-0.3c-0.1-0.1-0.2-0.1-0.4-0.1l0,0c-0.3,0-0.5-0.1-0.7-0.2c-0.2-0.1-0.4-0.2-0.5-0.4
			c-0.1-0.1-0.2-0.3-0.3-0.5c-0.1-0.2-0.1-0.4-0.1-0.6c0-0.2,0-0.4,0.1-0.6c0-0.2,0.2-0.4,0.3-0.5c0.1-0.2,0.3-0.3,0.5-0.4
			c0.2-0.1,0.4-0.2,0.7-0.2l0,0c0.1,0,0.2-0.1,0.4-0.2c0.1-0.1,0.2-0.2,0.3-0.3c0,0,0.1-0.1,0.1-0.2V5.4c0-0.1-0.1-0.1-0.1-0.2
			c-0.1-0.1-0.2-0.2-0.3-0.3c-0.1-0.1-0.2-0.1-0.4-0.2l0,0c-0.3,0-0.5-0.1-0.7-0.2c-0.2-0.1-0.4-0.2-0.5-0.4
			c-0.1-0.1-0.2-0.3-0.3-0.5c-0.1-0.2-0.1-0.4-0.1-0.6s0-0.4,0.1-0.6c0-0.2,0.2-0.4,0.3-0.5s0.3-0.3,0.5-0.4
			c0.2-0.1,0.4-0.2,0.7-0.2l0,0C104,1.3,104.1,1.3,104.2,1.2z"/>
	</g>
	<g>
		<path class="st1" d="M118.6,48.4V35.9h-2.9v-2.7h2.9V27h3.1v6.2h6.6v2.7h-6.6V48c0,2.5,1.4,3.4,3.5,3.4c1,0,1.9-0.2,3-0.7v2.6
			c-1.1,0.5-2.2,0.9-3.7,0.9C121.2,54.2,118.6,52.6,118.6,48.4"/>
		<path class="st1" d="M133.2,24.7h3.1v12.1c1.3-2.2,3.5-4,7.1-4c5,0,7.9,3.4,7.9,8.3v12.8h-3.1V41.8c0-3.8-2.1-6.2-5.7-6.2
			c-3.6,0-6.2,2.6-6.2,6.5v11.8h-3.1L133.2,24.7L133.2,24.7z"/>
		<path class="st1" d="M166,51.7c2.8,0,4.8-1.2,6.5-2.9l1.9,1.7c-2.1,2.3-4.6,3.9-8.5,3.9c-5.7,0-10.3-4.4-10.3-10.8
			c0-6,4.2-10.8,9.9-10.8c6.1,0,9.6,4.9,9.6,11c0,0.3,0,0.6,0,1.1h-16.4C159.1,49.2,162.3,51.7,166,51.7 M172,42.3
			c-0.4-3.8-2.5-7-6.6-7c-3.6,0-6.3,3-6.7,7H172z"/>
		<path class="st1" d="M181.2,25.8h12.6c3.2,0,5.7,0.9,7.3,2.5c1.3,1.3,1.9,2.8,1.9,4.7v0.1c0,3.4-1.9,5.1-4,6.2
			c3.3,1.1,5.5,3,5.5,6.8v0.1c0,5-4.1,7.7-10.4,7.7h-13V25.8z M192.7,37.7c3.2,0,5.3-1.3,5.3-3.8v-0.1c0-2.2-1.7-3.6-4.9-3.6H186
			v7.4L192.7,37.7L192.7,37.7z M194.1,49.5c3.4,0,5.4-1.3,5.4-3.8v-0.1c0-2.4-1.9-3.8-5.8-3.8H186v7.7H194.1z"/>
		<polygon class="st1" points="210,25.8 230.8,25.8 230.8,30.3 214.9,30.3 214.9,37.5 229,37.5 229,41.9 214.9,41.9 214.9,49.5 
			231,49.5 231,53.8 210,53.8 		"/>
		<polygon class="st1" points="237.3,25.8 242.2,25.8 242.2,49.4 256.9,49.4 256.9,53.8 237.3,53.8 		"/>
		<path class="st1" d="M257.7,39.9L257.7,39.9c0-8.1,5.9-14.6,14.4-14.6c5.1,0,8.3,1.8,11,4.4l-3.2,3.6c-2.2-2.1-4.7-3.5-7.8-3.5
			c-5.4,0-9.3,4.4-9.3,9.9v0.1c0,5.5,3.9,10,9.3,10c3.4,0,5.6-1.4,8.1-3.6l3.2,3.2c-2.9,3-6.1,5-11.4,5
			C263.8,54.3,257.7,48,257.7,39.9"/>
		<path class="st1" d="M286.4,39.9L286.4,39.9c0-8,6.1-14.6,14.7-14.6c8.6,0,14.6,6.5,14.6,14.4v0.1c0,7.9-6.1,14.5-14.7,14.5
			C292.4,54.3,286.4,47.8,286.4,39.9 M310.5,39.9L310.5,39.9c0-5.5-4-10-9.5-10c-5.5,0-9.4,4.4-9.4,9.9v0.1c0,5.5,4,10,9.5,10
			C306.7,49.8,310.5,45.4,310.5,39.9"/>
		<path class="st1" d="M320.7,42V25.9h4.9v15.9c0,5.2,2.7,8,7.1,8c4.4,0,7-2.6,7-7.8V25.9h4.9v15.9c0,8.4-4.7,12.6-12,12.6
			C325.4,54.3,320.7,50.1,320.7,42"/>
		<path class="st1" d="M351.4,25.9h12.5c3.5,0,6.3,1,8.1,2.8c1.5,1.5,2.3,3.6,2.3,6v0.1c0,4.6-2.8,7.4-6.7,8.5l7.6,10.6h-5.8
			l-6.9-9.7h-0.1h-6.1v9.7h-4.9V25.9z M363.5,39.8c3.5,0,5.8-1.8,5.8-4.7V35c0-3-2.1-4.7-5.8-4.7h-7.2v9.4L363.5,39.8L363.5,39.8z"
			/>
		<polygon class="st1" points="386.1,30.4 377.3,30.4 377.3,25.8 400,25.8 400,30.4 391.1,30.4 391.1,53.8 386.1,53.8 		"/>
		<g>
			<path class="st1" d="M124.6,68h1.5v8.6h-1.3l-4.7-6.1v6.1h-1.5V68h1.4l4.6,5.9V68z"/>
			<path class="st1" d="M137.2,76.7h-1.6l-0.8-2.1h-4.1l-0.9,2.1h-1.6L132,68h1.4L137.2,76.7z M132.6,69.8l-1.5,3.4h3L132.6,69.8z"
				/>
			<path class="st1" d="M142.4,71.6c1.8,0.4,2.8,1.1,2.8,2.5c0,1.6-1.3,2.6-3.1,2.6c-1.3,0-2.5-0.4-3.6-1.4l0.9-1.1
				c0.8,0.7,1.7,1.1,2.7,1.1c0.9,0,1.5-0.4,1.5-1.1c0-0.6-0.4-0.9-1.9-1.3c-1.8-0.4-2.9-1-2.9-2.6c0-1.5,1.2-2.5,3-2.5
				c1.3,0,2.2,0.4,3.1,1.1l-0.8,1.2c-0.8-0.6-1.6-0.9-2.3-0.9c-0.9,0-1.4,0.4-1.4,1C140.4,71,140.8,71.2,142.4,71.6z"/>
			<path class="st1" d="M149.1,73v3.6h-1.5v-8.6h1.5v3.6h4.1v-3.6h1.5v8.6h-1.5V73H149.1z"/>
			<path class="st1" d="M163.6,68h1.7l-3.6,8.7h-1.3l-3.6-8.7h1.7l2.6,6.6L163.6,68z"/>
			<path class="st1" d="M169,68v8.6h-1.5V68H169z"/>
			<path class="st1" d="M171.9,68h1.5v7.2h4.5v1.4h-6V68z"/>
			<path class="st1" d="M180.1,68h1.5v7.2h4.5v1.4h-6V68z"/>
			<path class="st1" d="M194.7,69.4h-4.9v2.2h4.3V73h-4.3v2.3h4.9v1.3h-6.4v-8.6h6.4L194.7,69.4L194.7,69.4z"/>
			<path class="st1" d="M197.5,69.7h-0.6V68h1.7v1.4c0,1.3-0.7,1.9-1.9,2.1l-0.2-0.6C197.3,70.8,197.6,70.3,197.5,69.7z"/>
			<path class="st1" d="M204.3,71.6c1.8,0.4,2.8,1.1,2.8,2.5c0,1.6-1.3,2.6-3.1,2.6c-1.3,0-2.5-0.4-3.6-1.4l0.9-1.1
				c0.8,0.7,1.7,1.1,2.7,1.1c0.9,0,1.5-0.4,1.5-1.1c0-0.6-0.4-0.9-1.9-1.3c-1.8-0.4-2.9-1-2.9-2.6c0-1.5,1.2-2.5,3-2.5
				c1.3,0,2.2,0.4,3.1,1.1l-0.8,1.2c-0.8-0.6-1.6-0.9-2.3-0.9c-0.9,0-1.4,0.4-1.4,1C202.3,71,202.7,71.2,204.3,71.6z"/>
			<path class="st1" d="M219.8,68h1.5v8.6H220l-4.7-6.1v6.1h-1.5V68h1.4l4.6,5.9V68z"/>
			<path class="st1" d="M228.2,76.8c-2.6,0-4.5-2-4.5-4.4s1.9-4.5,4.5-4.5c2.6,0,4.5,2,4.5,4.4C232.7,74.8,230.9,76.8,228.2,76.8z
				 M228.2,69.3c-1.7,0-2.9,1.3-2.9,3s1.2,3.1,2.9,3.1c1.7,0,2.9-1.3,2.9-3C231.1,70.7,229.9,69.3,228.2,69.3z"/>
			<path class="st1" d="M241.2,68h1.5v8.6h-1.3l-4.7-6.1v6.1h-1.5V68h1.4l4.6,5.9V68z"/>
			<path class="st1" d="M248.7,73.9H247v2.8h-1.5v-8.6h3.4c2,0,3.3,1.1,3.3,2.9C252.1,72.9,250.6,73.9,248.7,73.9z M248.7,69.4H247
				v3.1h1.7c1.2,0,1.8-0.6,1.8-1.6C250.6,69.9,249.9,69.4,248.7,69.4z"/>
			<path class="st1" d="M259.8,76.7l-2.1-3h-1.9v3h-1.5v-8.6h3.8c2,0,3.2,1,3.2,2.7c0,1.4-0.8,2.3-2.1,2.6l2.3,3.3H259.8L259.8,76.7
				z M258,69.4h-2.2v2.9h2.2c1.1,0,1.8-0.6,1.8-1.4C259.8,69.9,259.1,69.4,258,69.4z"/>
			<path class="st1" d="M267.9,76.8c-2.6,0-4.5-2-4.5-4.4s1.9-4.5,4.5-4.5s4.5,2,4.5,4.4C272.4,74.8,270.5,76.8,267.9,76.8z
				 M267.9,69.3c-1.7,0-2.9,1.3-2.9,3s1.2,3.1,2.9,3.1c1.7,0,2.9-1.3,2.9-3C270.8,70.7,269.6,69.3,267.9,69.3z"/>
			<path class="st1" d="M281.3,69.4h-4.9v2.3h4.3v1.4h-4.3v3.5h-1.5V68h6.4V69.4L281.3,69.4z"/>
			<path class="st1" d="M285.1,68v8.6h-1.5V68H285.1z"/>
			<path class="st1" d="M291.6,76.7h-1.5v-7.2h-2.7v-1.4h7v1.4h-2.7V76.7z"/>
			<path class="st1" d="M307.3,69.4h-4.9v2.3h4.3v1.4h-4.3v3.5h-1.5V68h6.4L307.3,69.4L307.3,69.4z"/>
			<path class="st1" d="M311.1,68v8.6h-1.5V68H311.1z"/>
			<path class="st1" d="M314,68h1.5v7.2h4.5v1.4h-6V68z"/>
			<path class="st1" d="M326.5,74.5L326.5,74.5l-2.7-4v6.1h-1.5V68h1.6l2.6,4.1l2.6-4.1h1.6v8.6h-1.5v-6.2L326.5,74.5z"/>
			<path class="st1" d="M341.8,76.8c-2.5,0-4.4-2-4.4-4.4s1.8-4.5,4.4-4.5c1.6,0,2.5,0.5,3.4,1.3l-1,1.1c-0.7-0.6-1.4-1.1-2.4-1.1
				c-1.7,0-2.8,1.3-2.8,3c0,1.7,1.2,3.1,2.8,3.1c1.1,0,1.7-0.4,2.5-1.1l1,1C344.4,76.2,343.4,76.8,341.8,76.8z"/>
			<path class="st1" d="M353.9,69.4H349v2.2h4.3V73H349v2.3h4.9v1.3h-6.4v-8.6h6.4L353.9,69.4L353.9,69.4z"/>
			<path class="st1" d="M362.3,68h1.5v8.6h-1.3l-4.7-6.1v6.1h-1.5V68h1.4l4.6,5.9V68z"/>
			<path class="st1" d="M370.3,76.7h-1.5v-7.2h-2.7v-1.4h7v1.4h-2.7V76.7z"/>
			<path class="st1" d="M381.6,69.4h-4.9v2.2h4.3V73h-4.3v2.3h4.9v1.3h-6.4v-8.6h6.4L381.6,69.4L381.6,69.4z"/>
			<path class="st1" d="M389.6,76.7l-2.1-3h-1.9v3h-1.5v-8.6h3.8c2,0,3.2,1,3.2,2.7c0,1.4-0.8,2.3-2.1,2.6l2.3,3.3H389.6L389.6,76.7
				z M387.8,69.4h-2.2v2.9h2.2c1.1,0,1.8-0.6,1.8-1.4C389.6,69.9,388.9,69.4,387.8,69.4z"/>
		</g>
	</g>
</g>
</svg>
