<svg width="145" height="23" viewBox="0 0 145 23" fill="none" xmlns="http://www.w3.org/2000/svg">
<path d="M6.33214 13.9317C6.87902 13.9317 7.32232 13.4884 7.32232 12.9415C7.32232 12.3947 6.87902 11.9514 6.33214 11.9514C5.78529 11.9514 5.34198 12.3947 5.34198 12.9415C5.34198 13.4884 5.78529 13.9317 6.33214 13.9317Z" fill="#091045"/>
<path d="M1.21605 18.6651C1.55025 18.6651 1.82116 18.3942 1.82116 18.06C1.82116 17.7258 1.55025 17.4549 1.21605 17.4549C0.881871 17.4549 0.610962 17.7258 0.610962 18.06C0.610962 18.3942 0.881871 18.6651 1.21605 18.6651Z" fill="#091045"/>
<path d="M6.35961 18.8278C6.80011 18.8278 7.15724 18.4707 7.15724 18.0302C7.15724 17.5896 6.80011 17.2325 6.35961 17.2325C5.91908 17.2325 5.56195 17.5896 5.56195 18.0302C5.56195 18.4707 5.91908 18.8278 6.35961 18.8278Z" fill="#091045"/>
<path d="M16.2613 4.52595C17.2487 4.52595 18.0493 3.72552 18.0493 2.73814C18.0493 1.75074 17.2487 0.950317 16.2613 0.950317C15.274 0.950317 14.4734 1.75074 14.4734 2.73814C14.4734 3.72552 15.274 4.52595 16.2613 4.52595Z" fill="#091045"/>
<path d="M16.2889 9.42209C17.1698 9.42209 17.8842 8.70785 17.8842 7.8268C17.8842 6.94574 17.1698 6.23151 16.2889 6.23151C15.4078 6.23151 14.6935 6.94574 14.6935 7.8268C14.6935 8.70785 15.4078 9.42209 16.2889 9.42209Z" fill="#091045"/>
<path d="M11.1728 9.25794C11.9323 9.25794 12.548 8.64223 12.548 7.8827C12.548 7.12317 11.9323 6.50745 11.1728 6.50745C10.4133 6.50745 9.79755 7.12317 9.79755 7.8827C9.79755 8.64223 10.4133 9.25794 11.1728 9.25794Z" fill="#091045"/>
<path d="M11.1729 14.1541C11.8413 14.1541 12.3831 13.6246 12.3831 12.9714C12.3831 12.3182 11.8413 11.7887 11.1729 11.7887C10.5045 11.7887 9.96271 12.3182 9.96271 12.9714C9.96271 13.6246 10.5045 14.1541 11.1729 14.1541Z" fill="#091045"/>
<path d="M16.2887 14.3169C17.0484 14.3169 17.664 13.7012 17.664 12.9417C17.664 12.1821 17.0484 11.5664 16.2887 11.5664C15.5293 11.5664 14.9135 12.1821 14.9135 12.9417C14.9135 13.7012 15.5293 14.3169 16.2887 14.3169Z" fill="#091045"/>
<path d="M16.2613 19.2138C16.9144 19.2138 17.4438 18.6842 17.4438 18.0311C17.4438 17.3778 16.9144 16.8484 16.2613 16.8484C15.608 16.8484 15.0786 17.3778 15.0786 18.0311C15.0786 18.6842 15.608 19.2138 16.2613 19.2138Z" fill="#091045"/>
<path d="M11.173 19.0474C11.7199 19.0474 12.1632 18.6042 12.1632 18.0573C12.1632 17.5104 11.7199 17.0671 11.173 17.0671C10.6262 17.0671 10.1829 17.5104 10.1829 18.0573C10.1829 18.6042 10.6262 19.0474 11.173 19.0474Z" fill="#091045"/>
<path d="M1.21622 2.98648C1.39851 2.98648 1.5463 2.8387 1.5463 2.65641C1.5463 2.47414 1.39851 2.32635 1.21622 2.32635C1.03395 2.32635 0.886169 2.47414 0.886169 2.65641C0.886169 2.8387 1.03395 2.98648 1.21622 2.98648Z" fill="#091045"/>
<path d="M6.33203 2.98648C6.5143 2.98648 6.66208 2.8387 6.66208 2.65641C6.66208 2.47414 6.5143 2.32635 6.33203 2.32635C6.14973 2.32635 6.00195 2.47414 6.00195 2.65641C6.00195 2.8387 6.14973 2.98648 6.33203 2.98648Z" fill="#091045"/>
<path d="M6.33203 8.15549C6.5143 8.15549 6.66208 8.00771 6.66208 7.82542C6.66208 7.64314 6.5143 7.49536 6.33203 7.49536C6.14973 7.49536 6.00195 7.64314 6.00195 7.82542C6.00195 8.00771 6.14973 8.15549 6.33203 8.15549Z" fill="#091045"/>
<path d="M1.21622 8.15549C1.39851 8.15549 1.5463 8.00771 1.5463 7.82542C1.5463 7.64314 1.39851 7.49536 1.21622 7.49536C1.03395 7.49536 0.886169 7.64314 0.886169 7.82542C0.886169 8.00771 1.03395 8.15549 1.21622 8.15549Z" fill="#091045"/>
<path d="M1.21622 13.2741C1.39851 13.2741 1.5463 13.1264 1.5463 12.9441C1.5463 12.7618 1.39851 12.614 1.21622 12.614C1.03395 12.614 0.886169 12.7618 0.886169 12.9441C0.886169 13.1264 1.03395 13.2741 1.21622 13.2741Z" fill="#091045"/>
<path d="M11.173 2.98648C11.3552 2.98648 11.503 2.8387 11.503 2.65641C11.503 2.47414 11.3552 2.32635 11.173 2.32635C10.9907 2.32635 10.8429 2.47414 10.8429 2.65641C10.8429 2.8387 10.9907 2.98648 11.173 2.98648Z" fill="#091045"/>
<path d="M36.14 13.4042V5.09627H34.1889L34 4.90747V4.46689L38.2169 0.25H38.6575L38.8464 0.438818V3.64869H42.2449L42.4338 3.83751V4.90747L42.2449 5.09627H38.8464V13.4671C38.8464 14.5371 39.5385 15.2294 40.4827 15.2294C41.3009 15.2294 41.9304 14.9147 42.4967 14.0965H42.6856L43.1891 14.2224V14.4112C42.9373 15.4182 41.9933 16.9917 39.6645 16.9917C37.5875 16.9917 36.14 15.733 36.14 13.4042Z" fill="#091045"/>
<path d="M47.4688 22.5926L46.9654 22.3408L46.5877 21.5226V21.2081L50.1752 15.8583L45.2032 5.59918C45.2032 5.59918 44.8255 5.09567 44.4479 5.09567H43.8814L43.6926 4.90685V3.89984L43.8814 3.71102H49.483L49.6717 3.89984V4.90685L49.483 5.09567H48.9794C48.5388 5.09567 48.3501 5.28449 48.3501 5.59918C48.3501 5.788 48.3501 5.97682 48.4759 6.16564L51.6228 12.7742L54.7068 6.16564C54.7068 6.16564 54.8957 5.72505 54.8957 5.53623C54.8957 5.22154 54.6439 5.03273 54.2663 5.03273H53.7628L53.5739 4.84391V3.83689L53.7628 3.64807H57.9166L58.1055 3.83689V4.84391L57.9166 5.03273H57.4761C56.9726 5.03273 56.7208 5.28449 56.5321 5.72505L48.7277 22.215L48.413 22.5297H47.4059L47.4688 22.5926Z" fill="#091045"/>
<path d="M59.1127 22.5917L58.9239 22.403V21.3959L59.1127 21.2072H59.4903C59.9937 21.2072 60.4345 20.7666 60.4345 20.263V6.98299C60.4345 6.41654 59.9937 6.0389 59.4903 6.0389H59.1127L58.8608 5.78716V5.15777L59.0497 4.90601L62.5114 3.5843H63.2667L63.4554 3.77312L63.2037 5.59834C64.1477 4.02486 65.9101 3.20667 67.6094 3.20667C70.7563 3.20667 73.7774 5.47247 73.7774 10.067C73.7774 14.6615 70.6305 16.9273 67.5465 16.9273C65.4065 16.9273 64.0219 15.9832 63.2037 14.8503V20.0742C63.2037 20.5777 63.6443 21.0182 64.1477 21.0182H64.5254L64.7143 21.2072V22.2142L64.5254 22.403H59.0497L59.1127 22.5917ZM70.8823 10.1299C70.8823 7.23474 69.6863 4.71719 67.043 4.71719C64.3996 4.71719 63.2037 7.23474 63.2037 10.1299C63.2037 13.0251 64.3996 15.5426 67.043 15.5426C69.6863 15.5426 70.8823 13.0251 70.8823 10.1299Z" fill="#091045"/>
<path d="M75.4138 10.1941C75.4138 6.35481 78.2462 3.33374 82.1484 3.33374C86.3653 3.33374 88.4422 6.60656 88.4422 10.1941L88.2535 10.3829H78.1202C78.1202 12.9004 80.0084 14.9145 82.7778 14.9145C85.1065 14.9145 86.68 13.7816 87.7498 12.0193L88.0016 11.8934L88.3164 12.0193L88.4422 12.271C87.6869 15.0403 85.2953 16.9915 82.2742 16.9915C77.9944 16.9915 75.4769 13.7816 75.4769 10.1311L75.4138 10.1941ZM78.3091 8.93529H84.6658C85.3582 8.93529 85.5471 8.55767 85.5471 8.11709C85.5471 6.35481 84.2882 4.78134 82.1484 4.78134C79.6938 4.78134 78.2462 6.79538 78.1202 8.74647L78.3091 8.93529Z" fill="#091045"/>
<path d="M91.5891 13.4042V5.09627H89.7009L89.512 4.90747V4.46689L93.7289 0.25H94.1696L94.3583 0.438818V3.64869H97.7571L97.9458 3.83751V4.90747L97.7571 5.09627H94.3583V13.4671C94.3583 14.5371 95.0507 15.2294 95.9947 15.2294C96.8129 15.2294 97.4423 14.9147 98.0087 14.0965H98.1976L98.7011 14.2224V14.4112C98.4494 15.4182 97.5052 16.9917 95.1765 16.9917C93.0996 16.9917 91.652 15.733 91.652 13.4042H91.5891Z" fill="#091045"/>
<path d="M99.771 10.1941C99.771 6.10305 102.792 3.33374 106.757 3.33374C110.722 3.33374 113.744 6.10305 113.744 10.1941C113.744 14.2851 110.66 17.0544 106.757 17.0544C102.855 17.0544 99.771 14.2851 99.771 10.1941ZM110.785 10.1941C110.785 7.04712 109.338 4.84427 106.757 4.84427C104.177 4.84427 102.729 7.04712 102.729 10.1941C102.729 13.341 104.177 15.5438 106.757 15.5438C109.338 15.5438 110.785 13.341 110.785 10.1941Z" fill="#091045"/>
<path d="M115.506 16.6771L115.317 16.4882V15.4812L115.506 15.2924H115.883C116.387 15.2924 116.827 14.8518 116.827 14.2854V6.98448C116.827 6.41803 116.387 6.04039 115.883 6.04039H115.506L115.317 5.85157V5.22219L115.506 5.03337L118.841 3.71166H119.596L119.785 3.90048L119.534 5.85157C120.541 4.34105 122.051 3.39697 124.128 3.39697C126.834 3.39697 128.66 4.9075 128.66 7.80268V14.3483C128.66 14.8518 129.1 15.3553 129.604 15.3553H129.981L130.17 15.5441V16.5511L129.981 16.74H124.506L124.317 16.5511V15.5441L124.506 15.3553H124.883C125.387 15.3553 125.827 14.9148 125.827 14.3483V7.9915C125.827 6.22921 124.883 5.09632 123.121 5.09632C120.918 5.09632 119.596 7.04741 119.596 9.12439V14.3483C119.596 14.8518 120.037 15.3553 120.541 15.3553H120.918L121.107 15.5441V16.5511L120.918 16.74H115.443L115.506 16.6771Z" fill="#091045"/>
<path d="M131.681 10.1941C131.681 6.35481 134.513 3.33374 138.415 3.33374C142.632 3.33374 144.709 6.60656 144.709 10.1941L144.52 10.3829H134.387C134.387 12.9004 136.275 14.9145 139.045 14.9145C141.373 14.9145 142.947 13.7816 144.017 12.0193L144.269 11.8934L144.583 12.0193L144.709 12.271C143.954 15.0403 141.562 16.9915 138.541 16.9915C134.261 16.9915 131.744 13.7816 131.744 10.1311L131.681 10.1941ZM134.576 8.93529H140.933C141.625 8.93529 141.814 8.55767 141.814 8.11709C141.814 6.35481 140.555 4.78134 138.415 4.78134C135.961 4.78134 134.513 6.79538 134.387 8.74647L134.576 8.93529Z" fill="#091045"/>
</svg>
