<svg xmlns="http://www.w3.org/2000/svg" viewBox="0 0 32 32" width="32" height="32"><radialGradient id="a" cx="16" cy="16" r="16" gradientUnits="userSpaceOnUse"><stop offset="0%" stop-color="#fdf497"/><stop offset="45%" stop-color="#fdf497"/><stop offset="60%" stop-color="#fd5949"/><stop offset="90%" stop-color="#d6249f"/><stop offset="100%" stop-color="#285AEB"/></radialGradient><circle cx="16" cy="16" r="16" fill="url(#a)"/><path d="M22.667 10.667A2.667 2.667 0 0 0 20 8H12a2.667 2.667 0 0 0-2.667 2.667v8A2.667 2.667 0 0 0 12 21.333h8A2.667 2.667 0 0 0 22.667 18.667v-8zm-1.334 8A1.334 1.334 0 0 1 20 20H12a1.334 1.334 0 0 1-1.333-1.333v-8A1.334 1.334 0 0 1 12 9.333h8A1.334 1.334 0 0 1 21.333 10.667v8zM16 12.667A3.333 3.333 0 1 0 19.333 16 3.337 3.337 0 0 0 16 12.667zm0 5.333A2 2 0 1 1 18 16a2 2 0 0 1-2 2zm4.333-5.667a.667.667 0 1 1-.667-.667.667.667 0 0 1 .667.667z" fill="#fff"/></svg> 